<?xml version="1.0" encoding="utf-8"?>
<!-- Generator: Adobe Illustrator 19.1.0, SVG Export Plug-In . SVG Version: 6.00 Build 0)  -->
<svg version="1.1" id="Layer_1" xmlns="http://www.w3.org/2000/svg" xmlns:xlink="http://www.w3.org/1999/xlink" x="0px" y="0px"
	 viewBox="0 0 651.1 145.6" style="enable-background:new 0 0 651.1 145.6;" xml:space="preserve">
<style type="text/css">
	.st0{fill:#E55525;}
	.st1{fill:#FFFFFF;}
</style>
<g>
	<path class="st0" d="M88.1,92.3c0,7.6,2.1,9.7,10.4,11.1v3.5H61.1v-3.5c8.3-1.4,10.4-3.5,10.4-11.1V60.1H27.1v32.2
		c0,7.6,2.1,9.7,10.4,11.1v3.5H0v-3.5c8.3-1.4,10.4-3.5,10.4-11.1v-68c0-7.6-2.1-9.7-10.4-11.1V9.7h37.5v3.5
		c-8.3,1.4-10.4,3.5-10.4,11.1v30.3h44.4V24.3c0-7.6-2.1-9.7-10.4-11.1V9.7h37.5v3.5c-8.3,1.4-10.4,3.5-10.4,11.1V92.3L88.1,92.3z"
		/>
	<path class="st0" d="M190,92.3c0,7.6,2.1,9.7,10.4,11.1v3.5h-37.5v-3.5c8.3-1.4,10.4-3.5,10.4-11.1V56.2c0-6.9-2.1-9-9-10.4v-3.5
		l24.4-6.2h1.3V92.3L190,92.3z M181.7,2.8c5.8,0,10.5,4.9,10.5,10.7c0,5.8-4.7,10.5-10.5,10.5c-5.8,0-10.6-4.7-10.6-10.5
		C171.1,7.6,175.9,2.8,181.7,2.8L181.7,2.8z"/>
	<path class="st0" d="M251.3,20.1c0-6.9-2.1-9-9-10.4V6.2L266.6,0h1.4v86.8c0,8.1,2.2,10.7,11.8,10.4v4.2l-27.1,6.9h-1.4v-9.7H251
		c-5,6-12.2,9.7-20.5,9.7c-18,0-29.1-15.3-29.1-36.1c0-22.2,17.3-36.1,35.4-36.1c5.1,0,10.7,1.4,14.6,4.2V20.1L251.3,20.1z
		 M251.3,93.4v-33c0-16-8.3-18.7-13.9-18.7c-12.5,0-19.4,11.8-18.7,30.5c0.7,18,9,26.4,19,26.4C243,98.5,247.8,96.5,251.3,93.4
		L251.3,93.4z"/>
	<path class="st0" d="M368.9,92.3c0,7.6,2.1,9.7,10.4,11.1v3.5h-37.5v-3.5c8.3-1.4,10.4-3.5,10.4-11.1V20.1c0-6.9-2.1-9-9-10.4V6.2
		L367.7,0h1.3V92.3L368.9,92.3z"/>
	<path class="st0" d="M403.2,45.8h0.3c4.9-5.8,12.2-9.7,20.5-9.7c18,0,29.1,15.3,29.1,36.1c0,22.2-17.3,36.1-35.4,36.1
		c-5.7,0-12.9-1.4-19.4-6.9l-7.6,6.2h-4.2V20.1c0-6.9-2.1-9-9-10.4V6.2L402,0h1.2V45.8L403.2,45.8z M403.2,50.9v33
		c0,16,8.3,18.7,13.9,18.7c12.5,0,19.4-11.8,18.7-30.5c-0.7-18-9.2-26.4-19.2-26.4C411.4,45.8,406.7,48,403.2,50.9L403.2,50.9z"/>
	<path class="st1" d="M25,120.7c0-2.1-0.4-2.7-3.4-3v-0.8H30v0.8c-3,0.4-3.4,0.9-3.4,3v7.6c0,6.5-3.5,9.5-8.9,9.5
		c-5.9,0-8.5-3.3-8.5-9.5v-7.6c0-2.1-0.4-2.7-3.4-3v-0.8h9.9v0.8c-3,0.4-3.4,0.9-3.4,3v7.2c0,5.7,1.9,8.4,6.3,8.4
		c4.4,0,6.6-2.7,6.6-8.4V120.7L25,120.7z"/>
	<path class="st1" d="M88.7,120.7c0-2.1-0.4-2.7-3.4-3v-0.8h8.4v0.8c-3,0.4-3.4,0.9-3.4,3v16.7h-1.9L75.8,120v13.7
		c0,2.1,0.4,2.7,3.4,3v0.8h-8.4v-0.8c3-0.4,3.4-0.9,3.4-3v-12.9c0-2.1-0.4-2.7-3.4-3v-0.8h6.6l11.2,15.4V120.7L88.7,120.7z"/>
	<path class="st1" d="M138,120.7c0-2.1-0.4-2.7-3.4-3v-0.8h9.9v0.8c-3,0.4-3.4,0.9-3.4,3v12.9c0,2.1,0.4,2.7,3.4,3v0.8h-9.9v-0.8
		c3-0.4,3.4-0.9,3.4-3V120.7L138,120.7z"/>
	<path class="st1" d="M187.5,120c-0.5-1.3-0.9-1.7-2.8-2.3v-0.8h9.1v0.8c-3,0.4-3,1.5-2.3,3.4l5.1,12.7h0.1l4.7-12.7
		c0.7-1.9,0-3-2.7-3.4v-0.8h7.6v0.8c-1.9,0.4-2.5,0.8-3,2.3l-6.7,17.7h-1.6L187.5,120L187.5,120z"/>
	<path class="st1" d="M252.9,126.4h2.3c2.5,0,3.8-0.4,4.1-3.4h0.9v8.2h-0.9c-0.3-3-1.6-3.4-4.1-3.4h-2.3v8.4h5.9
		c2.8,0,4.6-0.9,4.9-4h0.9l-0.4,5.3h-17.8v-0.8c3-0.4,3.4-0.9,3.4-3v-12.9c0-2.1-0.4-2.7-3.4-3v-0.8h17.5l0.2,5.3h-1
		c-0.4-3.1-1.9-4-4.7-4h-5.5V126.4L252.9,126.4z"/>
	<path class="st1" d="M314.5,128.7h-2.1v4.9c0,2.1,0.4,2.7,3.4,3v0.8H306v-0.8c3-0.4,3.4-0.9,3.4-3v-12.9c0-2.1-0.4-2.7-3.4-3v-0.8
		h9.9c5.7,0,8.7,1.7,8.7,5.9c0,2.5-2,4.9-6.3,5.6l3.1,3.7c2.7,3.2,3.8,3.8,5.5,4.6v0.8h-4.7c-1.3-0.8-1.9-1.5-2.8-2.7L314.5,128.7
		L314.5,128.7z M313.9,127.4c4.9,0,7.4-1.6,7.4-4.6c0-3-1.7-4.6-6.3-4.6h-2.7v9.1H313.9L313.9,127.4z"/>
	<path class="st1" d="M380.1,123.2c-0.4-3.3-2.8-5.3-5.5-5.3c-2.5,0-4,1-4,3.1c0,2.7,2.7,3.6,4.9,4.5c3,1,6.5,2.5,6.5,6.2
		c0,3.9-3.6,6.1-7.6,6.1c-2.1,0-4.6-0.6-6.3-1.5l-0.4-5.5h1.1c0.4,4.7,3.4,5.7,5.5,5.7c2.7,0,4.4-1.5,4.4-3.9c0-2.6-2.8-3.5-5.1-4.5
		c-3.3-1.3-5.9-2.6-5.9-6.1c0-3.3,2.7-5.4,7.1-5.4c2,0,4.2,0.5,5.8,1.3l0.5,5.3H380.1L380.1,123.2z"/>
	<path class="st1" d="M427.1,120.7c0-2.1-0.4-2.7-3.4-3v-0.8h9.9v0.8c-3,0.4-3.4,0.9-3.4,3v12.9c0,2.1,0.4,2.7,3.4,3v0.8h-9.9v-0.8
		c3-0.4,3.4-0.9,3.4-3V120.7L427.1,120.7z"/>
	<path class="st1" d="M492.5,116.9l0.2,5.3h-0.9c-0.4-3.1-1.5-4-4.4-4h-2.3v15.4c0,2.1,0.4,2.7,3.4,3v0.8h-9.9v-0.8
		c3-0.4,3.4-0.9,3.4-3v-15.4h-2.3c-2.8,0-4,0.9-4.4,4h-1l0.2-5.3H492.5L492.5,116.9z"/>
	<path class="st1" d="M535.7,120c-0.6-1.2-1.3-1.9-3.2-2.3v-0.8h9.1v0.8c-3,0.4-2.7,1.6-1.7,3.4l3.9,7.6h0.1l3.6-7.4
		c0.9-1.9,0.6-3.2-2.1-3.6v-0.8h7.6v0.8c-1.9,0.4-2.7,0.8-3.4,2.3l-4.7,10v3.6c0,2.1,0.4,2.7,3.4,3v0.8h-9.9v-0.8
		c3-0.4,3.4-0.9,3.4-3v-2L535.7,120L535.7,120z"/>
	<path class="st0" d="M588.9,89.9c0-4.3,3.8-5.4,7.9-7.7c4.3,2.2,9.9,3.2,16.5,3.2c18.1,0,29-8.7,29-24.7c0-5.9-1.7-10.7-4.6-14.5
		c7-1.7,13.4-5.9,13.4-11.9c0-5.1-3.7-10.4-13.4-10.4c0.3,2.5,0.5,4.6,0.5,6.5c0,7-2.6,10.7-3.9,12c-4.9-3.9-11.9-6-20.4-6
		c-19,0-28.9,10.5-28.9,24.9c0,7.6,2.3,13.4,7,17.6c-5.4,1.9-11.3,7.2-11.3,15.2c0,35.6,58.9,5,58.9,31.7c0,11.7-13,14.4-25.8,14.4
		c-8.9,0-15-1.9-18-7.6c3.1,0,6.6-2.6,6.6-6.1c0-4.4-2.8-7.3-8.4-7.3c-8.3,0-12.1,4.9-12.1,10.5c0,9.6,13,15.8,32,15.8
		c16.5,0,35.1-5.7,35.1-24.4C648.8,78.9,588.9,106.9,588.9,89.9L588.9,89.9z M613.6,41.2c8.4,0,12,7.4,12,19.6
		c0,13-3.2,20.1-12.2,20.1c-8.9,0-11.4-7.1-11.4-19.3C602,48.7,605.2,41.2,613.6,41.2L613.6,41.2z"/>
	<path class="st0" d="M564.1,38c-5.5,0-15.1,7.5-15.1,15.6l0.4-16h-0.7l-25.2,6.3v3.5c7,1.4,9.1,3.5,9.1,10.5v36.4
		c0,7.7-2.1,9.8-10.5,11.2v3.5h37.8v-3.5c-8.4-1.4-10.5-3.5-10.5-11.2V61c0.6-6,7.9-18.8,17-11.3c-0.6,0.6-2.3,2.4-2.3,4.8
		c0,11.1,16.3,12.1,16.3-2.6C580.4,45.5,573.7,38,564.1,38"/>
	<path class="st0" d="M133,35.3c-18.5,0-32.6,10-32.6,37c0,25.8,13.4,35.3,33.6,35.3c15.6,0,24.4-10.8,27-21.3l-6.2-1.1
		c-2.3,10-10.6,14.2-19.6,14.2c-10.3,0-16.8-6.9-16.8-28.2v-1.1h42.6v-7.4C161.1,43,151.1,35.3,133,35.3L133,35.3z M143.9,64.2
		h-25.3c0.3-14.1,3.2-23.1,14-23.2c10.8,0,11.3,6.5,11.3,19.3V64.2L143.9,64.2z"/>
	<path class="st0" d="M312.8,35.3c-18.5,0-32.6,10-32.6,37c0,25.8,13.4,35.3,33.6,35.3c15.6,0,24.4-10.8,27-21.3l-6.2-1.1
		c-2.3,10-10.6,14.2-19.6,14.2c-10.3,0-16.8-6.9-16.8-28.2v-1.1h42.6v-7.4C340.8,43,330.8,35.3,312.8,35.3L312.8,35.3z M323.6,64.2
		h-25.3c0.3-14.1,3.2-23.1,14-23.2s11.3,6.5,11.3,19.3V64.2L323.6,64.2z"/>
	<path class="st0" d="M489.9,35.3c-18.5,0-32.6,10-32.6,37c0,25.8,13.4,35.3,33.6,35.3c15.6,0,24.4-10.8,27-21.3l-6.2-1.1
		c-2.3,10-10.6,14.2-19.6,14.2c-10.3,0-16.8-6.9-16.8-28.2v-1.1h42.6v-7.4C517.9,43,508,35.3,489.9,35.3L489.9,35.3z M500.8,64.2
		h-25.3c0.3-14.1,3.2-23.1,14-23.2c10.8,0,11.3,6.5,11.3,19.3V64.2L500.8,64.2z"/>
</g>
</svg>
